<?xml version="1.0" standalone="no"?>
<!DOCTYPE svg PUBLIC "-//W3C//DTD SVG 20010904//EN"
 "http://www.w3.org/TR/2001/REC-SVG-20010904/DTD/svg10.dtd">
<svg version="1.0" xmlns="http://www.w3.org/2000/svg"
 width="244.000000pt" height="244.000000pt" viewBox="0 0 244.000000 244.000000"
 preserveAspectRatio="xMidYMid meet">
<metadata>
Created by potrace 1.11, written by Peter Selinger 2001-2013
</metadata>
<g transform="translate(0.000000,244.000000) scale(0.100000,-0.100000)"
fill="#000000" stroke="none">
<path d="M0 1215 l0 -1185 1220 0 1220 0 0 1185 0 1185 -1220 0 -1220 0 0
-1185z m1296 1036 c93 -42 781 -459 815 -493 59 -61 60 -71 59 -571 0 -511 -1
-516 -75 -591 -47 -48 -782 -457 -854 -476 -52 -14 -120 -6 -171 19 -101 50
-760 451 -792 483 -70 70 -72 89 -65 606 7 505 7 503 79 572 32 30 394 233
715 401 120 62 138 69 190 69 35 0 74 -8 99 -19z"/>
<path d="M1047 2141 c-61 -32 -242 -130 -401 -217 -226 -124 -296 -167 -320
-197 l-31 -39 -8 -441 c-9 -496 -7 -528 46 -578 29 -26 663 -411 761 -461 49
-25 122 -25 174 -1 115 53 750 413 777 441 19 19 38 51 44 77 7 29 11 194 11
480 0 473 1 463 -57 516 -29 28 -725 442 -780 465 -59 25 -96 18 -216 -45z
m179 -248 c15 -16 16 -45 12 -344 l-6 -327 312 -188 c171 -103 320 -195 331
-205 15 -15 17 -24 9 -46 -20 -58 -42 -49 -374 151 -169 102 -316 186 -327
186 -11 0 -160 -79 -333 -175 -317 -178 -350 -191 -373 -154 -27 44 -9 58 325
244 l323 181 8 334 c7 292 10 337 25 348 22 17 47 15 68 -5z m-604 -302 c50
-32 63 -59 41 -90 -20 -30 -63 -26 -111 9 -33 24 -42 37 -42 60 0 29 20 49 51
50 8 0 36 -13 61 -29z m1233 -17 c40 -40 -19 -114 -91 -114 -67 0 -71 70 -7
108 45 26 76 28 98 6z m-1053 -93 c50 -32 65 -59 49 -90 -16 -29 -46 -34 -83
-15 -76 38 -100 88 -56 118 30 22 37 20 90 -13z m876 -3 c23 -23 14 -65 -18
-88 -66 -47 -120 -47 -135 0 -9 28 10 57 53 79 42 23 83 26 100 9z m-692 -110
c54 -36 66 -68 38 -99 -21 -23 -46 -24 -82 -2 -74 46 -88 77 -52 113 27 27 40
25 96 -12z m505 1 c14 -14 18 -27 13 -42 -3 -12 -7 -22 -8 -23 -91 -70 -156
-71 -156 -4 0 29 17 48 65 73 41 22 61 21 86 -4z m-267 -335 c24 -24 22 -126
-3 -148 -47 -43 -95 5 -88 88 6 69 52 99 91 60z m4 -222 c6 -9 12 -39 12 -68
0 -59 -17 -84 -55 -84 -38 0 -55 25 -55 83 0 57 5 68 34 84 23 13 46 7 64 -15z
m-4 -214 c29 -41 15 -121 -24 -133 -13 -4 -31 0 -45 9 -21 14 -25 24 -25 66 0
54 18 80 55 80 13 0 31 -10 39 -22z"/>
</g>
</svg>
